Coordinates
version=1
nRows=24
nColumns=24
inDegrees=yes

Units are S.I. units (second, meters, Newtons, ...)
Angles are in degrees.

endheader
time	pelvis_tilt	pelvis_list	pelvis_rotation	pelvis_tx	pelvis_ty	pelvis_tz	hip_flexion_r	hip_adduction_r	hip_rotation_r	knee_angle_r	ankle_angle_r	subtalar_angle_r	mtp_angle_r	hip_flexion_l	hip_adduction_l	hip_rotation_l	knee_angle_l	ankle_angle_l	subtalar_angle_l	mtp_angle_l	lumbar_extension	lumbar_bending	lumbar_rotation
      0.48800000	     -4.03466193	     -1.01674615	      6.52866217	     -0.79161798	      1.01401955	      0.31806666	     22.52569273	      1.34593926	    -10.24405927	      4.22694802	      0.65676873	     -1.91718052	      5.16144638	     -8.45417970	      2.72383347	      8.75251973	    -11.46833126	     13.54598820	     -7.07307785	     -1.82263910	     -2.29771441	     -1.95100892	     -6.19202621
      0.49216667	     -4.04963948	     -1.10343217	      6.57105896	     -0.78582348	      1.01332353	      0.31818717	     22.61442373	      1.48830042	    -10.08566776	      3.85699529	      0.54065262	     -2.12473367	      5.18981401	     -8.43732798	      2.61393643	      8.63774967	    -12.16185443	     13.70563114	     -6.82956088	     -1.78869556	     -2.22684497	     -1.83116210	     -6.17608699
      0.49633333	     -4.03906318	     -1.21381772	      6.61266887	     -0.77996917	      1.01268646	      0.31826607	     22.67333713	      1.65220389	     -9.89296260	      3.42887956	      0.38190831	     -2.40475381	      5.23428921	     -8.45017906	      2.48333161	      8.57381534	    -12.85325526	     13.83236270	     -6.69636478	     -1.74361951	     -2.16570121	     -1.64493469	     -6.15103099
      0.50050000	     -4.01276659	     -1.31389698	      6.64137497	     -0.77408993	      1.01209875	      0.31838951	     22.71766494	      1.81392091	     -9.64954118	      2.94667293	      0.11153689	     -2.84587958	      5.33583568	     -8.44141245	      2.35826731	      8.42095813	    -13.62215919	     13.92637083	     -6.44541648	     -1.64400868	     -2.15012060	     -1.51856103	     -6.12651279
      0.50466667	     -3.99953342	     -1.43669108	      6.68053835	     -0.76816518	      1.01152970	      0.31845481	     22.78082313	      1.98569562	     -9.42358075	      2.40233958	     -0.16931664	     -3.25790292	      5.43172518	     -8.40853228	      2.21892313	      8.34044305	    -14.41126109	     13.97741313	     -6.31198385	     -1.54716705	     -2.08489650	     -1.31426495	     -6.10647725
      0.50883333	     -3.93535661	     -1.56724686	      6.71522724	     -0.76219580	      1.01106847	      0.31853067	     22.78518017	      2.17414072	     -9.17028657	      1.82720415	     -0.53554105	     -3.79108153	      5.55102492	     -8.40250131	      2.05966444	      8.18406265	    -15.24807723	     14.01324780	     -6.10601116	     -1.41867038	     -2.07986478	     -1.10771750	     -6.08727866
      0.51300000	     -3.91769765	     -1.68236871	      6.74457639	     -0.75622312	      1.01055591	      0.31862208	     22.84982065	      2.34051942	     -8.88189329	      1.19348380	     -0.94395760	     -4.38422539	      5.69573725	     -8.31973033	      1.92468183	      8.02502837	    -16.14080686	     14.01112343	     -5.89515549	     -1.25313331	     -2.02083065	     -0.94297662	     -6.06776408
      0.51716667	     -3.81368730	     -1.79856897	      6.77575697	     -0.75021886	      1.01021435	      0.31872501	     22.80971859	      2.52173000	     -8.57487899	      0.55779191	     -1.42555565	     -5.08657351	      5.90462297	     -8.30838400	      1.77148044	      7.82068267	    -17.06878832	     13.99583130	     -5.63784185	     -0.99211836	     -2.06982253	     -0.77364436	     -6.04404604
      0.52133333	     -3.69370472	     -1.93301022	      6.78359299	     -0.74415432	      1.00991340	      0.31884866	     22.75395778	      2.73067603	     -8.23695630	     -0.10564161	     -1.93706909	     -5.80239298	      6.41722703	     -8.30679163	      1.59731836	      7.58613836	    -18.00858405	     13.89347251	     -5.38875001	     -0.30477009	     -2.13182856	     -0.53109596	     -6.00288398
      0.52550000	     -3.63514664	     -2.06260043	      6.82283096	     -0.73808338	      1.00958362	      0.31893818	     22.76480082	      2.91368185	     -7.94370562	     -0.79569307	     -2.46745083	     -6.50706123	      6.77596781	     -8.19657453	      1.43139957	      7.37711785	    -19.01816192	     13.73484960	     -5.17418610	      0.26069767	     -2.10269068	     -0.33183120	     -5.99269629
      0.52966667	     -3.57613333	     -2.18896762	      6.86762759	     -0.73199869	      1.00928551	      0.31902379	     22.78269295	      3.08665264	     -7.70921938	     -1.51583367	     -3.01076546	     -7.14731149	      8.38980301	     -8.06357822	      1.26744201	      7.17953432	    -20.06484700	     13.45672734	     -5.06209976	      3.24621293	     -2.06523685	     -0.14735492	     -5.96023541
      0.53383333	     -3.49086359	     -2.31501157	      6.90480663	     -0.72588982	      1.00906732	      0.31915161	     22.76493660	      3.27031353	     -7.41935204	     -2.24174221	     -3.55205092	     -7.84500220	      8.38672639	     -7.93298674	      1.08791416	      6.90979689	    -21.15500145	     13.21906648	     -4.80147565	      3.32294397	     -2.06409363	      0.04687880	     -5.96877212
      0.53800000	     -3.40644346	     -2.44260259	      6.93637186	     -0.71975878	      1.00888845	      0.31930637	     22.74359371	      3.45928889	     -7.12050703	     -2.96990462	     -4.09449860	     -8.55782465	      8.38733054	     -7.77804248	      0.90061947	      6.61636323	    -22.28176415	     12.90616631	     -4.55183675	      3.46993744	     -2.06097919	      0.24535719	     -5.94510554
      0.54216667	     -3.29398137	     -2.56963518	      6.96619804	     -0.71360516	      1.00880259	      0.31948968	     22.68449997	      3.65387434	     -6.82096735	     -3.69511059	     -4.62208290	     -9.26312437	      8.38638334	     -7.63110692	      0.69844867	      6.28551958	    -23.42931031	     12.52060744	     -4.27803904	      3.69584696	     -2.09028195	      0.44412807	     -5.91696380
      0.54633333	     -3.19273908	     -2.69375766	      6.99727652	     -0.70744161	      1.00874220	      0.31969636	     22.63724362	      3.84407518	     -6.53508714	     -4.43224919	     -5.11028534	     -9.93399480	      8.37901965	     -7.44438282	      0.49022924	      5.93322524	    -24.61624579	     12.07888175	     -3.99473174	      4.00358353	     -2.10412332	      0.63380948	     -5.88830322
      0.55050000	     -3.05654660	     -2.83037615	      7.03144713	     -0.70125388	      1.00879111	      0.31992863	     22.53951897	      4.05348000	     -6.25816388	     -5.15204841	     -5.57281724	    -10.59540466	      8.35741229	     -7.26813838	      0.24934846	      5.54851199	    -25.83727598	     11.53440311	     -3.70503892	      4.43588242	     -2.15729424	      0.83874150	     -5.85325158
      0.55466667	     -2.93187855	     -2.95194963	      7.05133225	     -0.69507536	      1.00885126	      0.32020568	     22.46227636	      4.24988879	     -5.99310046	     -5.90062818	     -5.95232241	    -11.17033945	      8.31995301	     -7.05637185	      0.01615432	      5.13073673	    -27.08544272	     10.92505307	     -3.42213884	      4.94488715	     -2.20120713	      1.03059348	     -5.81524376
      0.55883333	     -2.79026967	     -3.08608406	      7.08106175	     -0.68886658	      1.00900436	      0.32049752	     22.34934741	      4.46141096	     -5.74403312	     -6.62267955	     -6.29814987	    -11.74561667	      8.24689110	     -6.83615977	     -0.24866661	      4.69833154	    -28.35982896	     10.22555087	     -3.13783614	      5.68521433	     -2.25836692	      1.22891730	     -5.77184075
      0.56300000	     -2.60289052	     -3.20004413	      7.12994475	     -0.68266882	      1.00930025	      0.32076638	     22.18895912	      4.64349517	     -5.60066280	     -7.37075030	     -6.43852101	    -12.07426438	      7.56176386	     -6.65640384	     -0.50242477	      4.32104058	    -29.60336971	      9.17743030	     -3.06627413	     11.49167488	     -2.38365522	      1.39166801	     -5.74467103
      0.56716667	     -2.48012118	     -3.33330797	      7.15485183	     -0.67646583	      1.00950146	      0.32109822	     22.10323546	      4.84600414	     -5.44488000	     -8.13104452	     -6.54381778	    -12.40050063	      7.54316437	     -6.36191653	     -0.78510494	      3.86832294	    -30.94205242	      8.31805546	     -2.82793326	     11.56287658	     -2.41178520	      1.59696150	     -5.70160766
      0.57133333	     -2.29272475	     -3.46492747	      7.18203779	     -0.67026349	      1.00986337	      0.32146610	     21.92133269	      5.06277820	     -5.26969266	     -8.84309138	     -6.62788086	    -12.77023677	      7.49315444	     -6.11557383	     -1.09194955	      3.39254461	    -32.28568277	      7.35114169	     -2.59320041	     11.74227726	     -2.53136414	      1.79081430	     -5.64499505
      0.57550000	     -2.07639376	     -3.60315767	      7.21888097	     -0.66404222	      1.01031106	      0.32184243	     21.68139470	      5.29319650	     -5.09200233	     -9.50842727	     -6.63986099	    -13.15717293	      6.75519772	     -5.88213517	     -1.41972072	      2.94235237	    -33.62973886	      6.20134295	     -2.46230977	     14.35192927	     -2.67756565	      1.99614475	     -5.55438070
      0.57966667	     -1.92424747	     -3.72624794	      7.25635937	     -0.65785995	      1.01071535	      0.32222151	     21.52951284	      5.48468500	     -5.02975292	    -10.22677624	     -6.51278977	    -13.27440541	      6.74827011	     -5.54214417	     -1.73369118	      2.48841349	    -35.02040365	      5.02689498	     -2.29765785	     14.37351235	     -2.75098873	      2.15876800	     -5.54866942
      0.58383333	     -1.75230074	     -3.85550866	      7.28430429	     -0.65168292	      1.01117391	      0.32263784	     21.33724133	      5.69473155	     -4.94838877	    -10.91146980	     -6.33315198	    -13.42271025	      6.73107348	     -5.20101606	     -2.06753737	      2.02689281	    -36.42690268	      3.79381489	     -2.16042910	     14.41937151	     -2.85153718	      2.33570495	     -5.51282558
